<svg xmlns="http://www.w3.org/2000/svg" viewBox="0 0 63 32">
  <path fill="currentColor" d="M1.332.624h5.004c1.18 0 2.087.089 2.721.266.647.165 1.104.438 1.37.818.266.368.4.888.4 1.56V4.79c0 .343-.139.666-.419.97a2.06 2.06 0 0 1-.951.628v.095c.482.051.92.26 1.313.628.406.355.609.755.609 1.199v1.903c0 1.002-.4 1.712-1.199 2.131s-2.036.628-3.71.628H1.333V.623zm5.004 5.024c.469 0 .818-.038 1.046-.114s.381-.197.457-.362c.089-.178.133-.431.133-.761v-.609c0-.292-.038-.507-.114-.647-.076-.152-.235-.26-.476-.323-.228-.063-.596-.095-1.104-.095H4.299v2.911h2.036zm.076 5.213c.723 0 1.237-.082 1.541-.247s.457-.431.457-.799v-.989c0-.457-.12-.78-.361-.97-.228-.19-.641-.285-1.237-.285H4.3v3.292h2.112zm11.507 2.302c-3.26 0-4.89-.996-4.89-2.987V6.865c0-1.154.368-1.992 1.104-2.512.748-.52 1.896-.78 3.444-.78 1.459 0 2.524.254 3.197.761.685.495 1.027 1.338 1.027 2.531V9.11h-5.974v.837c0 .533.19.913.571 1.142s1.066.342 2.055.342c.913 0 1.941-.133 3.082-.4v1.77a17.295 17.295 0 0 1-3.615.361zm1.237-5.632V6.199a.748.748 0 0 0-.381-.685c-.241-.152-.653-.228-1.237-.228-.672 0-1.123.076-1.351.228a.785.785 0 0 0-.361.685v1.332h3.33zm7.374 5.632c-.863 0-1.509-.076-1.941-.228a1.56 1.56 0 0 1-.894-.856c-.165-.419-.247-1.04-.247-1.865 0-.736.089-1.313.266-1.731.19-.419.488-.717.894-.894.419-.19.989-.285 1.712-.285h3.12v-.628c0-.393-.057-.685-.171-.875-.101-.19-.298-.323-.59-.4-.279-.076-.704-.114-1.275-.114-.786 0-1.865.076-3.235.228v-1.75c1.002-.127 2.175-.19 3.52-.19 1.18 0 2.087.089 2.721.266.647.178 1.11.482 1.389.913s.419 1.059.419 1.884v6.336h-2.721v-.837a1.794 1.794 0 0 1-.875.78c-.368.165-1.066.247-2.093.247zm1.085-1.731c.558 0 .958-.019 1.199-.057.178-.025.298-.063.361-.114a.556.556 0 0 0 .19-.247c.051-.089.076-.222.076-.4V8.825h-1.903c-.431 0-.736.032-.913.095a.515.515 0 0 0-.361.342c-.063.165-.095.463-.095.894 0 .419.032.71.095.875s.184.273.361.323c.19.051.52.076.989.076zm10.245 1.731c-1.18 0-2.011-.209-2.493-.628-.469-.431-.704-1.104-.704-2.017V3.763h2.778v6.374c0 .355.032.622.095.799a.697.697 0 0 0 .419.381c.216.076.539.114.97.114.545 0 .945-.032 1.199-.095.254-.076.425-.203.514-.381s.133-.45.133-.818V3.763h2.778v9.209h-2.74v-1.123c-.203.875-1.186 1.313-2.949 1.313zm12.724 0c-.469 0-.863-.019-1.18-.057s-.634-.114-.951-.228a2.401 2.401 0 0 1-.875-.476c-.216-.203-.393-.482-.533-.837a3.32 3.32 0 0 1-.228-1.275V5.476h-1.865V3.764h1.865V1.1h2.778v2.664h2.531v1.712h-2.531v4.338c0 .444.038.78.114 1.008a.808.808 0 0 0 .438.476c.216.089.545.133.989.133.178 0 .507-.032.989-.095v1.731c-.596.063-1.11.095-1.541.095zm5.751-.266-3.672-9.133h3.025l2.074 6.507 1.884-6.507h2.873l-5.042 13.167h-2.816l1.674-4.034zM.761 29.328l6.431-8.429H.951v-2.112h9.894v1.789l-6.431 8.429h6.545v2.131H.761v-1.808zm16.521 1.997c-.571 0-1.04-.019-1.408-.057s-.761-.114-1.18-.228c-.457-.127-.824-.304-1.104-.533-.279-.241-.514-.577-.704-1.008-.19-.419-.285-.926-.285-1.522v-2.721c0-.609.095-1.142.285-1.598s.438-.812.742-1.066c.266-.216.615-.393 1.046-.533a5.539 5.539 0 0 1 1.294-.285c.482-.025.92-.038 1.313-.038.584 0 1.046.019 1.389.057a5.32 5.32 0 0 1 1.161.228c.457.14.824.33 1.104.571.292.241.539.584.742 1.027.19.457.285 1.002.285 1.636v2.721c0 .571-.095 1.072-.285 1.503-.178.431-.412.767-.704 1.008-.254.216-.603.393-1.046.533a6.621 6.621 0 0 1-1.275.247c-.381.038-.837.057-1.37.057zm0-1.731c.52 0 .913-.038 1.18-.114.266-.089.45-.222.552-.4.114-.178.171-.438.171-.78v-3.482c0-.507-.133-.863-.4-1.066s-.767-.304-1.503-.304c-.736 0-1.237.101-1.503.304s-.4.558-.4 1.066V28.3c0 .343.051.603.152.78.114.178.304.311.571.4.266.076.66.114 1.18.114zm6.846-7.668h2.74v1.123c.216-.875 1.199-1.313 2.949-1.313 1.18 0 2.004.216 2.474.647.482.419.723 1.085.723 1.998v6.755h-2.778v-6.393c0-.355-.038-.622-.114-.799-.063-.178-.203-.304-.419-.381-.203-.076-.52-.114-.951-.114-.545 0-.945.038-1.199.114-.254.063-.425.184-.514.361s-.133.45-.133.818v6.393h-2.778v-9.209zm15.94 9.399c-3.26 0-4.89-.996-4.89-2.987v-3.311c0-1.154.368-1.992 1.104-2.512.748-.52 1.896-.78 3.444-.78 1.459 0 2.524.254 3.197.761.685.495 1.027 1.338 1.027 2.531v2.245h-5.974v.837c0 .533.19.913.571 1.142s1.066.343 2.055.343c.913 0 1.941-.133 3.082-.4v1.77a17.295 17.295 0 0 1-3.615.361zm1.236-5.632v-1.332a.748.748 0 0 0-.381-.685c-.241-.152-.653-.228-1.237-.228-.672 0-1.123.076-1.351.228a.785.785 0 0 0-.361.685v1.332h3.33z"/>
</svg>
